<svg width="32" height="32" viewBox="0 0 32 32" fill="none" xmlns="http://www.w3.org/2000/svg">
<path d="M17.3333 29.3333H8.78782C6.72731 29.3333 5.0884 28.3306 3.61687 26.9287C0.604479 24.0587 5.55039 21.7653 7.43675 20.6421C10.0408 19.0915 13.0569 18.4538 16 18.7287" stroke="#3C97AF" stroke-width="2" stroke-linecap="round" stroke-linejoin="round"/>
<path d="M20.6667 8.66663C20.6667 11.9803 17.9804 14.6666 14.6667 14.6666C11.3529 14.6666 8.66666 11.9803 8.66666 8.66663C8.66666 5.35292 11.3529 2.66663 14.6667 2.66663C17.9804 2.66663 20.6667 5.35292 20.6667 8.66663Z" stroke="#3C97AF" stroke-width="2"/>
<path d="M27.2 27.2L29.3334 29.3333M28.2667 23.4666C28.2667 20.8157 26.1176 18.6666 23.4667 18.6666C20.8158 18.6666 18.6667 20.8157 18.6667 23.4666C18.6667 26.1176 20.8158 28.2666 23.4667 28.2666C26.1176 28.2666 28.2667 26.1176 28.2667 23.4666Z" stroke="#3C97AF" stroke-width="2" stroke-linecap="round" stroke-linejoin="round"/>
</svg>
