<svg width="142" height="15" viewBox="0 0 142 15" fill="none" xmlns="http://www.w3.org/2000/svg">
<path d="M0.312 12V0.719999H7.48V2.064H1.976V5.664H7.144V7.008H1.976V12H0.312ZM8.83913 12V4.192H10.4071V6.064H10.2471C10.4178 5.424 10.7218 4.93867 11.1591 4.608C11.6071 4.27733 12.1991 4.08533 12.9351 4.032L13.4631 4L13.5751 5.376L12.5991 5.472C11.9058 5.536 11.3778 5.75467 11.0151 6.128C10.6525 6.50133 10.4711 7.01333 10.4711 7.664V12H8.83913ZM18.3625 12.144C17.5092 12.144 16.7732 11.984 16.1545 11.664C15.5465 11.3333 15.0718 10.8693 14.7305 10.272C14.3998 9.664 14.2345 8.944 14.2345 8.112C14.2345 7.30133 14.3998 6.592 14.7305 5.984C15.0612 5.376 15.5145 4.90133 16.0905 4.56C16.6665 4.21867 17.3225 4.048 18.0585 4.048C18.7838 4.048 19.4025 4.208 19.9145 4.528C20.4372 4.83733 20.8372 5.28 21.1145 5.856C21.3918 6.432 21.5305 7.12 21.5305 7.92V8.464H15.5145V7.472H20.4425L20.1705 7.696C20.1705 6.896 19.9945 6.27733 19.6425 5.84C19.2905 5.40267 18.7838 5.184 18.1225 5.184C17.6212 5.184 17.1945 5.30133 16.8425 5.536C16.5012 5.77067 16.2398 6.096 16.0585 6.512C15.8772 6.928 15.7865 7.41333 15.7865 7.968V8.064C15.7865 8.68267 15.8825 9.20533 16.0745 9.632C16.2772 10.048 16.5705 10.3627 16.9545 10.576C17.3385 10.7893 17.8132 10.896 18.3785 10.896C18.8265 10.896 19.2638 10.8267 19.6905 10.688C20.1278 10.5387 20.5385 10.3093 20.9225 10L21.4025 11.12C21.0505 11.44 20.5972 11.6907 20.0425 11.872C19.4878 12.0533 18.9278 12.144 18.3625 12.144ZM26.9563 12.144C26.1029 12.144 25.3669 11.984 24.7483 11.664C24.1403 11.3333 23.6656 10.8693 23.3243 10.272C22.9936 9.664 22.8283 8.944 22.8283 8.112C22.8283 7.30133 22.9936 6.592 23.3243 5.984C23.6549 5.376 24.1083 4.90133 24.6843 4.56C25.2603 4.21867 25.9163 4.048 26.6523 4.048C27.3776 4.048 27.9963 4.208 28.5083 4.528C29.0309 4.83733 29.4309 5.28 29.7083 5.856C29.9856 6.432 30.1243 7.12 30.1243 7.92V8.464H24.1083V7.472H29.0363L28.7643 7.696C28.7643 6.896 28.5883 6.27733 28.2363 5.84C27.8843 5.40267 27.3776 5.184 26.7163 5.184C26.2149 5.184 25.7883 5.30133 25.4363 5.536C25.0949 5.77067 24.8336 6.096 24.6523 6.512C24.4709 6.928 24.3803 7.41333 24.3803 7.968V8.064C24.3803 8.68267 24.4763 9.20533 24.6683 9.632C24.8709 10.048 25.1643 10.3627 25.5483 10.576C25.9323 10.7893 26.4069 10.896 26.9723 10.896C27.4203 10.896 27.8576 10.8267 28.2843 10.688C28.7216 10.5387 29.1323 10.3093 29.5163 10L29.9963 11.12C29.6443 11.44 29.1909 11.6907 28.6363 11.872C28.0816 12.0533 27.5216 12.144 26.9563 12.144ZM34.43 12.144C33.5767 12.144 32.9367 11.904 32.51 11.424C32.094 10.9333 31.886 10.2293 31.886 9.312V0.719999H33.502V9.216C33.502 9.55733 33.55 9.85067 33.646 10.096C33.742 10.3307 33.886 10.5067 34.078 10.624C34.27 10.7413 34.51 10.8 34.798 10.8C34.926 10.8 35.0487 10.7947 35.166 10.784C35.2833 10.7733 35.3953 10.752 35.502 10.72L35.47 12.016C35.2887 12.0587 35.1127 12.0907 34.942 12.112C34.7713 12.1333 34.6007 12.144 34.43 12.144ZM39.2726 12.144C38.7286 12.144 38.238 12.0373 37.8006 11.824C37.374 11.6107 37.038 11.3227 36.7926 10.96C36.5473 10.5973 36.4246 10.1867 36.4246 9.728C36.4246 9.152 36.5686 8.69867 36.8566 8.368C37.1553 8.02667 37.6406 7.78667 38.3126 7.648C38.9953 7.49867 39.9126 7.424 41.0646 7.424H41.8166V8.416H41.0806C40.5046 8.416 40.0193 8.43733 39.6246 8.48C39.23 8.52267 38.9153 8.592 38.6806 8.688C38.446 8.77333 38.2753 8.896 38.1686 9.056C38.0726 9.216 38.0246 9.408 38.0246 9.632C38.0246 10.0373 38.1633 10.368 38.4406 10.624C38.718 10.8693 39.102 10.992 39.5926 10.992C39.9873 10.992 40.334 10.9013 40.6326 10.72C40.9313 10.528 41.166 10.272 41.3366 9.952C41.518 9.632 41.6086 9.264 41.6086 8.848V7.008C41.6086 6.4 41.4806 5.96267 41.2246 5.696C40.9686 5.42933 40.5473 5.296 39.9606 5.296C39.5126 5.296 39.0646 5.36533 38.6166 5.504C38.1686 5.632 37.71 5.84 37.2406 6.128L36.7446 4.992C37.022 4.8 37.342 4.63467 37.7046 4.496C38.0673 4.35733 38.446 4.25067 38.8406 4.176C39.246 4.09067 39.6353 4.048 40.0086 4.048C40.7233 4.048 41.31 4.16 41.7686 4.384C42.238 4.608 42.5846 4.94933 42.8086 5.408C43.0326 5.86667 43.1446 6.45867 43.1446 7.184V12H41.6246V10.256H41.7686C41.6833 10.6507 41.5233 10.992 41.2886 11.28C41.0646 11.5573 40.782 11.7707 40.4406 11.92C40.0993 12.0693 39.71 12.144 39.2726 12.144ZM45.3704 12V4.192H46.9384V5.856H46.7624C46.997 5.25867 47.365 4.81067 47.8664 4.512C48.3677 4.20267 48.9437 4.048 49.5944 4.048C50.213 4.048 50.725 4.16533 51.1304 4.4C51.5464 4.624 51.8557 4.97067 52.0584 5.44C52.261 5.89867 52.3624 6.48 52.3624 7.184V12H50.7464V7.28C50.7464 6.832 50.6877 6.46933 50.5704 6.192C50.453 5.904 50.277 5.69067 50.0424 5.552C49.8077 5.41333 49.5037 5.344 49.1304 5.344C48.7037 5.344 48.325 5.43467 47.9944 5.616C47.6744 5.79733 47.4237 6.05867 47.2424 6.4C47.0717 6.74133 46.9864 7.136 46.9864 7.584V12H45.3704ZM58.0291 12.144C57.2291 12.144 56.5358 11.9787 55.9491 11.648C55.3731 11.3067 54.9251 10.832 54.6051 10.224C54.2851 9.60533 54.1251 8.88 54.1251 8.048C54.1251 7.22667 54.2851 6.51733 54.6051 5.92C54.9251 5.32267 55.3731 4.864 55.9491 4.544C56.5358 4.21333 57.2291 4.048 58.0291 4.048C58.5198 4.048 59.0051 4.13333 59.4851 4.304C59.9651 4.464 60.3598 4.69867 60.6691 5.008L60.1571 6.144C59.8691 5.86667 59.5438 5.664 59.1811 5.536C58.8185 5.39733 58.4771 5.328 58.1571 5.328C57.3998 5.328 56.8131 5.568 56.3971 6.048C55.9918 6.51733 55.7891 7.18933 55.7891 8.064C55.7891 8.93867 55.9918 9.62667 56.3971 10.128C56.8131 10.6187 57.3998 10.864 58.1571 10.864C58.4771 10.864 58.8185 10.8 59.1811 10.672C59.5438 10.5333 59.8691 10.3253 60.1571 10.048L60.6691 11.2C60.3598 11.488 59.9598 11.7173 59.4691 11.888C58.9891 12.0587 58.5091 12.144 58.0291 12.144ZM65.5656 12.144C64.7123 12.144 63.9763 11.984 63.3576 11.664C62.7496 11.3333 62.275 10.8693 61.9336 10.272C61.603 9.664 61.4376 8.944 61.4376 8.112C61.4376 7.30133 61.603 6.592 61.9336 5.984C62.2643 5.376 62.7176 4.90133 63.2936 4.56C63.8696 4.21867 64.5256 4.048 65.2616 4.048C65.987 4.048 66.6056 4.208 67.1176 4.528C67.6403 4.83733 68.0403 5.28 68.3176 5.856C68.595 6.432 68.7336 7.12 68.7336 7.92V8.464H62.7176V7.472H67.6456L67.3736 7.696C67.3736 6.896 67.1976 6.27733 66.8456 5.84C66.4936 5.40267 65.987 5.184 65.3256 5.184C64.8243 5.184 64.3976 5.30133 64.0456 5.536C63.7043 5.77067 63.443 6.096 63.2616 6.512C63.0803 6.928 62.9896 7.41333 62.9896 7.968V8.064C62.9896 8.68267 63.0856 9.20533 63.2776 9.632C63.4803 10.048 63.7736 10.3627 64.1576 10.576C64.5416 10.7893 65.0163 10.896 65.5816 10.896C66.0296 10.896 66.467 10.8267 66.8936 10.688C67.331 10.5387 67.7416 10.3093 68.1256 10L68.6056 11.12C68.2536 11.44 67.8003 11.6907 67.2456 11.872C66.691 12.0533 66.131 12.144 65.5656 12.144ZM70.4954 12V4.192H72.0634V6.064H71.9034C72.074 5.424 72.378 4.93867 72.8154 4.608C73.2634 4.27733 73.8554 4.08533 74.5914 4.032L75.1194 4L75.2314 5.376L74.2554 5.472C73.562 5.536 73.034 5.75467 72.6714 6.128C72.3087 6.50133 72.1274 7.01333 72.1274 7.664V12H70.4954ZM80.6673 14.88V4.192H82.2513V5.952H82.0753C82.2459 5.376 82.5819 4.91733 83.0833 4.576C83.5846 4.224 84.1766 4.048 84.8593 4.048C85.5526 4.048 86.1553 4.21333 86.6673 4.544C87.1899 4.87467 87.5899 5.33867 87.8673 5.936C88.1553 6.53333 88.2993 7.25333 88.2993 8.096C88.2993 8.91733 88.1553 9.63733 87.8673 10.256C87.5899 10.864 87.1953 11.3333 86.6833 11.664C86.1713 11.984 85.5633 12.144 84.8593 12.144C84.1873 12.144 83.6006 11.9733 83.0993 11.632C82.5979 11.2907 82.2619 10.8373 82.0913 10.272H82.2833V14.88H80.6673ZM84.4593 10.896C85.1313 10.896 85.6646 10.656 86.0593 10.176C86.4646 9.696 86.6673 9.00267 86.6673 8.096C86.6673 7.17867 86.4646 6.48533 86.0593 6.016C85.6646 5.54667 85.1313 5.312 84.4593 5.312C83.7979 5.312 83.2646 5.54667 82.8593 6.016C82.4539 6.48533 82.2513 7.17867 82.2513 8.096C82.2513 9.00267 82.4539 9.696 82.8593 10.176C83.2646 10.656 83.7979 10.896 84.4593 10.896ZM92.6644 12.144C91.811 12.144 91.171 11.904 90.7444 11.424C90.3284 10.9333 90.1204 10.2293 90.1204 9.312V0.719999H91.7364V9.216C91.7364 9.55733 91.7844 9.85067 91.8804 10.096C91.9764 10.3307 92.1204 10.5067 92.3124 10.624C92.5044 10.7413 92.7444 10.8 93.0324 10.8C93.1604 10.8 93.283 10.7947 93.4004 10.784C93.5177 10.7733 93.6297 10.752 93.7364 10.72L93.7044 12.016C93.523 12.0587 93.347 12.0907 93.1764 12.112C93.0057 12.1333 92.835 12.144 92.6644 12.144ZM97.507 12.144C96.963 12.144 96.4723 12.0373 96.035 11.824C95.6083 11.6107 95.2723 11.3227 95.027 10.96C94.7817 10.5973 94.659 10.1867 94.659 9.728C94.659 9.152 94.803 8.69867 95.091 8.368C95.3897 8.02667 95.875 7.78667 96.547 7.648C97.2297 7.49867 98.147 7.424 99.299 7.424H100.051V8.416H99.315C98.739 8.416 98.2537 8.43733 97.859 8.48C97.4643 8.52267 97.1497 8.592 96.915 8.688C96.6803 8.77333 96.5097 8.896 96.403 9.056C96.307 9.216 96.259 9.408 96.259 9.632C96.259 10.0373 96.3977 10.368 96.675 10.624C96.9523 10.8693 97.3363 10.992 97.827 10.992C98.2217 10.992 98.5683 10.9013 98.867 10.72C99.1657 10.528 99.4003 10.272 99.571 9.952C99.7523 9.632 99.843 9.264 99.843 8.848V7.008C99.843 6.4 99.715 5.96267 99.459 5.696C99.203 5.42933 98.7817 5.296 98.195 5.296C97.747 5.296 97.299 5.36533 96.851 5.504C96.403 5.632 95.9443 5.84 95.475 6.128L94.979 4.992C95.2563 4.8 95.5763 4.63467 95.939 4.496C96.3017 4.35733 96.6803 4.25067 97.075 4.176C97.4803 4.09067 97.8697 4.048 98.243 4.048C98.9577 4.048 99.5443 4.16 100.003 4.384C100.472 4.608 100.819 4.94933 101.043 5.408C101.267 5.86667 101.379 6.45867 101.379 7.184V12H99.859V10.256H100.003C99.9177 10.6507 99.7577 10.992 99.523 11.28C99.299 11.5573 99.0163 11.7707 98.675 11.92C98.3337 12.0693 97.9443 12.144 97.507 12.144ZM106.933 12.144C105.962 12.144 105.231 11.8933 104.741 11.392C104.261 10.8907 104.021 10.1653 104.021 9.216V5.44H102.501V4.192H104.021V1.84H105.637V4.192H108.053V5.44H105.637V9.088C105.637 9.65333 105.754 10.08 105.989 10.368C106.234 10.656 106.629 10.8 107.173 10.8C107.333 10.8 107.493 10.7787 107.653 10.736C107.823 10.6933 107.989 10.6507 108.149 10.608L108.405 11.824C108.245 11.92 108.021 11.9947 107.733 12.048C107.455 12.112 107.189 12.144 106.933 12.144ZM109.913 12V5.44H108.393V4.192H110.377L109.913 4.624V4.048C109.913 2.98133 110.185 2.176 110.729 1.632C111.283 1.07733 112.131 0.767999 113.273 0.704L113.977 0.655999L114.089 1.872L113.353 1.92C112.915 1.94133 112.563 2.02667 112.297 2.176C112.03 2.32533 111.833 2.53867 111.705 2.816C111.587 3.08267 111.529 3.41867 111.529 3.824V4.448L111.305 4.192H113.721V5.44H111.529V12H109.913ZM118.169 12.144C117.379 12.144 116.697 11.9787 116.121 11.648C115.555 11.3173 115.113 10.848 114.793 10.24C114.473 9.632 114.313 8.91733 114.313 8.096C114.313 7.264 114.473 6.54933 114.793 5.952C115.113 5.344 115.555 4.87467 116.121 4.544C116.697 4.21333 117.379 4.048 118.169 4.048C118.947 4.048 119.619 4.21333 120.185 4.544C120.761 4.87467 121.209 5.344 121.529 5.952C121.849 6.56 122.009 7.27467 122.009 8.096C122.009 8.91733 121.849 9.632 121.529 10.24C121.209 10.848 120.761 11.3173 120.185 11.648C119.619 11.9787 118.947 12.144 118.169 12.144ZM118.153 10.896C118.825 10.896 119.363 10.656 119.769 10.176C120.174 9.696 120.377 9.00267 120.377 8.096C120.377 7.17867 120.174 6.48533 119.769 6.016C119.363 5.54667 118.825 5.312 118.153 5.312C117.491 5.312 116.958 5.54667 116.553 6.016C116.147 6.48533 115.945 7.17867 115.945 8.096C115.945 9.00267 116.147 9.696 116.553 10.176C116.958 10.656 117.491 10.896 118.153 10.896ZM123.824 12V4.192H125.392V6.064H125.232C125.402 5.424 125.706 4.93867 126.144 4.608C126.592 4.27733 127.184 4.08533 127.92 4.032L128.448 4L128.56 5.376L127.584 5.472C126.89 5.536 126.362 5.75467 126 6.128C125.637 6.50133 125.456 7.01333 125.456 7.664V12H123.824ZM129.824 12V4.192H131.392V5.856H131.216C131.355 5.472 131.547 5.14667 131.792 4.88C132.038 4.61333 132.331 4.41067 132.672 4.272C133.024 4.12267 133.408 4.048 133.824 4.048C134.475 4.048 135.003 4.20267 135.408 4.512C135.814 4.82133 136.091 5.296 136.24 5.936H136.016C136.219 5.34933 136.566 4.89067 137.056 4.56C137.547 4.21867 138.118 4.048 138.768 4.048C139.366 4.048 139.856 4.16533 140.24 4.4C140.624 4.624 140.912 4.97067 141.104 5.44C141.296 5.89867 141.392 6.48 141.392 7.184V12H139.776V7.264C139.776 6.60267 139.659 6.11733 139.424 5.808C139.2 5.49867 138.827 5.344 138.304 5.344C137.92 5.344 137.584 5.43467 137.296 5.616C137.008 5.79733 136.784 6.064 136.624 6.416C136.475 6.75733 136.4 7.16267 136.4 7.632V12H134.784V7.264C134.784 6.60267 134.672 6.11733 134.448 5.808C134.224 5.49867 133.851 5.344 133.328 5.344C132.934 5.344 132.592 5.43467 132.304 5.616C132.027 5.79733 131.814 6.064 131.664 6.416C131.515 6.75733 131.44 7.16267 131.44 7.632V12H129.824Z" fill="#21868E"/>
<path d="M0.312 12V0.719999H7.48V2.064H1.976V5.664H7.144V7.008H1.976V12H0.312ZM8.83913 12V4.192H10.4071V6.064H10.2471C10.4178 5.424 10.7218 4.93867 11.1591 4.608C11.6071 4.27733 12.1991 4.08533 12.9351 4.032L13.4631 4L13.5751 5.376L12.5991 5.472C11.9058 5.536 11.3778 5.75467 11.0151 6.128C10.6525 6.50133 10.4711 7.01333 10.4711 7.664V12H8.83913ZM18.3625 12.144C17.5092 12.144 16.7732 11.984 16.1545 11.664C15.5465 11.3333 15.0718 10.8693 14.7305 10.272C14.3998 9.664 14.2345 8.944 14.2345 8.112C14.2345 7.30133 14.3998 6.592 14.7305 5.984C15.0612 5.376 15.5145 4.90133 16.0905 4.56C16.6665 4.21867 17.3225 4.048 18.0585 4.048C18.7838 4.048 19.4025 4.208 19.9145 4.528C20.4372 4.83733 20.8372 5.28 21.1145 5.856C21.3918 6.432 21.5305 7.12 21.5305 7.92V8.464H15.5145V7.472H20.4425L20.1705 7.696C20.1705 6.896 19.9945 6.27733 19.6425 5.84C19.2905 5.40267 18.7838 5.184 18.1225 5.184C17.6212 5.184 17.1945 5.30133 16.8425 5.536C16.5012 5.77067 16.2398 6.096 16.0585 6.512C15.8772 6.928 15.7865 7.41333 15.7865 7.968V8.064C15.7865 8.68267 15.8825 9.20533 16.0745 9.632C16.2772 10.048 16.5705 10.3627 16.9545 10.576C17.3385 10.7893 17.8132 10.896 18.3785 10.896C18.8265 10.896 19.2638 10.8267 19.6905 10.688C20.1278 10.5387 20.5385 10.3093 20.9225 10L21.4025 11.12C21.0505 11.44 20.5972 11.6907 20.0425 11.872C19.4878 12.0533 18.9278 12.144 18.3625 12.144ZM26.9563 12.144C26.1029 12.144 25.3669 11.984 24.7483 11.664C24.1403 11.3333 23.6656 10.8693 23.3243 10.272C22.9936 9.664 22.8283 8.944 22.8283 8.112C22.8283 7.30133 22.9936 6.592 23.3243 5.984C23.6549 5.376 24.1083 4.90133 24.6843 4.56C25.2603 4.21867 25.9163 4.048 26.6523 4.048C27.3776 4.048 27.9963 4.208 28.5083 4.528C29.0309 4.83733 29.4309 5.28 29.7083 5.856C29.9856 6.432 30.1243 7.12 30.1243 7.92V8.464H24.1083V7.472H29.0363L28.7643 7.696C28.7643 6.896 28.5883 6.27733 28.2363 5.84C27.8843 5.40267 27.3776 5.184 26.7163 5.184C26.2149 5.184 25.7883 5.30133 25.4363 5.536C25.0949 5.77067 24.8336 6.096 24.6523 6.512C24.4709 6.928 24.3803 7.41333 24.3803 7.968V8.064C24.3803 8.68267 24.4763 9.20533 24.6683 9.632C24.8709 10.048 25.1643 10.3627 25.5483 10.576C25.9323 10.7893 26.4069 10.896 26.9723 10.896C27.4203 10.896 27.8576 10.8267 28.2843 10.688C28.7216 10.5387 29.1323 10.3093 29.5163 10L29.9963 11.12C29.6443 11.44 29.1909 11.6907 28.6363 11.872C28.0816 12.0533 27.5216 12.144 26.9563 12.144ZM34.43 12.144C33.5767 12.144 32.9367 11.904 32.51 11.424C32.094 10.9333 31.886 10.2293 31.886 9.312V0.719999H33.502V9.216C33.502 9.55733 33.55 9.85067 33.646 10.096C33.742 10.3307 33.886 10.5067 34.078 10.624C34.27 10.7413 34.51 10.8 34.798 10.8C34.926 10.8 35.0487 10.7947 35.166 10.784C35.2833 10.7733 35.3953 10.752 35.502 10.72L35.47 12.016C35.2887 12.0587 35.1127 12.0907 34.942 12.112C34.7713 12.1333 34.6007 12.144 34.43 12.144ZM39.2726 12.144C38.7286 12.144 38.238 12.0373 37.8006 11.824C37.374 11.6107 37.038 11.3227 36.7926 10.96C36.5473 10.5973 36.4246 10.1867 36.4246 9.728C36.4246 9.152 36.5686 8.69867 36.8566 8.368C37.1553 8.02667 37.6406 7.78667 38.3126 7.648C38.9953 7.49867 39.9126 7.424 41.0646 7.424H41.8166V8.416H41.0806C40.5046 8.416 40.0193 8.43733 39.6246 8.48C39.23 8.52267 38.9153 8.592 38.6806 8.688C38.446 8.77333 38.2753 8.896 38.1686 9.056C38.0726 9.216 38.0246 9.408 38.0246 9.632C38.0246 10.0373 38.1633 10.368 38.4406 10.624C38.718 10.8693 39.102 10.992 39.5926 10.992C39.9873 10.992 40.334 10.9013 40.6326 10.72C40.9313 10.528 41.166 10.272 41.3366 9.952C41.518 9.632 41.6086 9.264 41.6086 8.848V7.008C41.6086 6.4 41.4806 5.96267 41.2246 5.696C40.9686 5.42933 40.5473 5.296 39.9606 5.296C39.5126 5.296 39.0646 5.36533 38.6166 5.504C38.1686 5.632 37.71 5.84 37.2406 6.128L36.7446 4.992C37.022 4.8 37.342 4.63467 37.7046 4.496C38.0673 4.35733 38.446 4.25067 38.8406 4.176C39.246 4.09067 39.6353 4.048 40.0086 4.048C40.7233 4.048 41.31 4.16 41.7686 4.384C42.238 4.608 42.5846 4.94933 42.8086 5.408C43.0326 5.86667 43.1446 6.45867 43.1446 7.184V12H41.6246V10.256H41.7686C41.6833 10.6507 41.5233 10.992 41.2886 11.28C41.0646 11.5573 40.782 11.7707 40.4406 11.92C40.0993 12.0693 39.71 12.144 39.2726 12.144ZM45.3704 12V4.192H46.9384V5.856H46.7624C46.997 5.25867 47.365 4.81067 47.8664 4.512C48.3677 4.20267 48.9437 4.048 49.5944 4.048C50.213 4.048 50.725 4.16533 51.1304 4.4C51.5464 4.624 51.8557 4.97067 52.0584 5.44C52.261 5.89867 52.3624 6.48 52.3624 7.184V12H50.7464V7.28C50.7464 6.832 50.6877 6.46933 50.5704 6.192C50.453 5.904 50.277 5.69067 50.0424 5.552C49.8077 5.41333 49.5037 5.344 49.1304 5.344C48.7037 5.344 48.325 5.43467 47.9944 5.616C47.6744 5.79733 47.4237 6.05867 47.2424 6.4C47.0717 6.74133 46.9864 7.136 46.9864 7.584V12H45.3704ZM58.0291 12.144C57.2291 12.144 56.5358 11.9787 55.9491 11.648C55.3731 11.3067 54.9251 10.832 54.6051 10.224C54.2851 9.60533 54.1251 8.88 54.1251 8.048C54.1251 7.22667 54.2851 6.51733 54.6051 5.92C54.9251 5.32267 55.3731 4.864 55.9491 4.544C56.5358 4.21333 57.2291 4.048 58.0291 4.048C58.5198 4.048 59.0051 4.13333 59.4851 4.304C59.9651 4.464 60.3598 4.69867 60.6691 5.008L60.1571 6.144C59.8691 5.86667 59.5438 5.664 59.1811 5.536C58.8185 5.39733 58.4771 5.328 58.1571 5.328C57.3998 5.328 56.8131 5.568 56.3971 6.048C55.9918 6.51733 55.7891 7.18933 55.7891 8.064C55.7891 8.93867 55.9918 9.62667 56.3971 10.128C56.8131 10.6187 57.3998 10.864 58.1571 10.864C58.4771 10.864 58.8185 10.8 59.1811 10.672C59.5438 10.5333 59.8691 10.3253 60.1571 10.048L60.6691 11.2C60.3598 11.488 59.9598 11.7173 59.4691 11.888C58.9891 12.0587 58.5091 12.144 58.0291 12.144ZM65.5656 12.144C64.7123 12.144 63.9763 11.984 63.3576 11.664C62.7496 11.3333 62.275 10.8693 61.9336 10.272C61.603 9.664 61.4376 8.944 61.4376 8.112C61.4376 7.30133 61.603 6.592 61.9336 5.984C62.2643 5.376 62.7176 4.90133 63.2936 4.56C63.8696 4.21867 64.5256 4.048 65.2616 4.048C65.987 4.048 66.6056 4.208 67.1176 4.528C67.6403 4.83733 68.0403 5.28 68.3176 5.856C68.595 6.432 68.7336 7.12 68.7336 7.92V8.464H62.7176V7.472H67.6456L67.3736 7.696C67.3736 6.896 67.1976 6.27733 66.8456 5.84C66.4936 5.40267 65.987 5.184 65.3256 5.184C64.8243 5.184 64.3976 5.30133 64.0456 5.536C63.7043 5.77067 63.443 6.096 63.2616 6.512C63.0803 6.928 62.9896 7.41333 62.9896 7.968V8.064C62.9896 8.68267 63.0856 9.20533 63.2776 9.632C63.4803 10.048 63.7736 10.3627 64.1576 10.576C64.5416 10.7893 65.0163 10.896 65.5816 10.896C66.0296 10.896 66.467 10.8267 66.8936 10.688C67.331 10.5387 67.7416 10.3093 68.1256 10L68.6056 11.12C68.2536 11.44 67.8003 11.6907 67.2456 11.872C66.691 12.0533 66.131 12.144 65.5656 12.144ZM70.4954 12V4.192H72.0634V6.064H71.9034C72.074 5.424 72.378 4.93867 72.8154 4.608C73.2634 4.27733 73.8554 4.08533 74.5914 4.032L75.1194 4L75.2314 5.376L74.2554 5.472C73.562 5.536 73.034 5.75467 72.6714 6.128C72.3087 6.50133 72.1274 7.01333 72.1274 7.664V12H70.4954ZM80.6673 14.88V4.192H82.2513V5.952H82.0753C82.2459 5.376 82.5819 4.91733 83.0833 4.576C83.5846 4.224 84.1766 4.048 84.8593 4.048C85.5526 4.048 86.1553 4.21333 86.6673 4.544C87.1899 4.87467 87.5899 5.33867 87.8673 5.936C88.1553 6.53333 88.2993 7.25333 88.2993 8.096C88.2993 8.91733 88.1553 9.63733 87.8673 10.256C87.5899 10.864 87.1953 11.3333 86.6833 11.664C86.1713 11.984 85.5633 12.144 84.8593 12.144C84.1873 12.144 83.6006 11.9733 83.0993 11.632C82.5979 11.2907 82.2619 10.8373 82.0913 10.272H82.2833V14.88H80.6673ZM84.4593 10.896C85.1313 10.896 85.6646 10.656 86.0593 10.176C86.4646 9.696 86.6673 9.00267 86.6673 8.096C86.6673 7.17867 86.4646 6.48533 86.0593 6.016C85.6646 5.54667 85.1313 5.312 84.4593 5.312C83.7979 5.312 83.2646 5.54667 82.8593 6.016C82.4539 6.48533 82.2513 7.17867 82.2513 8.096C82.2513 9.00267 82.4539 9.696 82.8593 10.176C83.2646 10.656 83.7979 10.896 84.4593 10.896ZM92.6644 12.144C91.811 12.144 91.171 11.904 90.7444 11.424C90.3284 10.9333 90.1204 10.2293 90.1204 9.312V0.719999H91.7364V9.216C91.7364 9.55733 91.7844 9.85067 91.8804 10.096C91.9764 10.3307 92.1204 10.5067 92.3124 10.624C92.5044 10.7413 92.7444 10.8 93.0324 10.8C93.1604 10.8 93.283 10.7947 93.4004 10.784C93.5177 10.7733 93.6297 10.752 93.7364 10.72L93.7044 12.016C93.523 12.0587 93.347 12.0907 93.1764 12.112C93.0057 12.1333 92.835 12.144 92.6644 12.144ZM97.507 12.144C96.963 12.144 96.4723 12.0373 96.035 11.824C95.6083 11.6107 95.2723 11.3227 95.027 10.96C94.7817 10.5973 94.659 10.1867 94.659 9.728C94.659 9.152 94.803 8.69867 95.091 8.368C95.3897 8.02667 95.875 7.78667 96.547 7.648C97.2297 7.49867 98.147 7.424 99.299 7.424H100.051V8.416H99.315C98.739 8.416 98.2537 8.43733 97.859 8.48C97.4643 8.52267 97.1497 8.592 96.915 8.688C96.6803 8.77333 96.5097 8.896 96.403 9.056C96.307 9.216 96.259 9.408 96.259 9.632C96.259 10.0373 96.3977 10.368 96.675 10.624C96.9523 10.8693 97.3363 10.992 97.827 10.992C98.2217 10.992 98.5683 10.9013 98.867 10.72C99.1657 10.528 99.4003 10.272 99.571 9.952C99.7523 9.632 99.843 9.264 99.843 8.848V7.008C99.843 6.4 99.715 5.96267 99.459 5.696C99.203 5.42933 98.7817 5.296 98.195 5.296C97.747 5.296 97.299 5.36533 96.851 5.504C96.403 5.632 95.9443 5.84 95.475 6.128L94.979 4.992C95.2563 4.8 95.5763 4.63467 95.939 4.496C96.3017 4.35733 96.6803 4.25067 97.075 4.176C97.4803 4.09067 97.8697 4.048 98.243 4.048C98.9577 4.048 99.5443 4.16 100.003 4.384C100.472 4.608 100.819 4.94933 101.043 5.408C101.267 5.86667 101.379 6.45867 101.379 7.184V12H99.859V10.256H100.003C99.9177 10.6507 99.7577 10.992 99.523 11.28C99.299 11.5573 99.0163 11.7707 98.675 11.92C98.3337 12.0693 97.9443 12.144 97.507 12.144ZM106.933 12.144C105.962 12.144 105.231 11.8933 104.741 11.392C104.261 10.8907 104.021 10.1653 104.021 9.216V5.44H102.501V4.192H104.021V1.84H105.637V4.192H108.053V5.44H105.637V9.088C105.637 9.65333 105.754 10.08 105.989 10.368C106.234 10.656 106.629 10.8 107.173 10.8C107.333 10.8 107.493 10.7787 107.653 10.736C107.823 10.6933 107.989 10.6507 108.149 10.608L108.405 11.824C108.245 11.92 108.021 11.9947 107.733 12.048C107.455 12.112 107.189 12.144 106.933 12.144ZM109.913 12V5.44H108.393V4.192H110.377L109.913 4.624V4.048C109.913 2.98133 110.185 2.176 110.729 1.632C111.283 1.07733 112.131 0.767999 113.273 0.704L113.977 0.655999L114.089 1.872L113.353 1.92C112.915 1.94133 112.563 2.02667 112.297 2.176C112.03 2.32533 111.833 2.53867 111.705 2.816C111.587 3.08267 111.529 3.41867 111.529 3.824V4.448L111.305 4.192H113.721V5.44H111.529V12H109.913ZM118.169 12.144C117.379 12.144 116.697 11.9787 116.121 11.648C115.555 11.3173 115.113 10.848 114.793 10.24C114.473 9.632 114.313 8.91733 114.313 8.096C114.313 7.264 114.473 6.54933 114.793 5.952C115.113 5.344 115.555 4.87467 116.121 4.544C116.697 4.21333 117.379 4.048 118.169 4.048C118.947 4.048 119.619 4.21333 120.185 4.544C120.761 4.87467 121.209 5.344 121.529 5.952C121.849 6.56 122.009 7.27467 122.009 8.096C122.009 8.91733 121.849 9.632 121.529 10.24C121.209 10.848 120.761 11.3173 120.185 11.648C119.619 11.9787 118.947 12.144 118.169 12.144ZM118.153 10.896C118.825 10.896 119.363 10.656 119.769 10.176C120.174 9.696 120.377 9.00267 120.377 8.096C120.377 7.17867 120.174 6.48533 119.769 6.016C119.363 5.54667 118.825 5.312 118.153 5.312C117.491 5.312 116.958 5.54667 116.553 6.016C116.147 6.48533 115.945 7.17867 115.945 8.096C115.945 9.00267 116.147 9.696 116.553 10.176C116.958 10.656 117.491 10.896 118.153 10.896ZM123.824 12V4.192H125.392V6.064H125.232C125.402 5.424 125.706 4.93867 126.144 4.608C126.592 4.27733 127.184 4.08533 127.92 4.032L128.448 4L128.56 5.376L127.584 5.472C126.89 5.536 126.362 5.75467 126 6.128C125.637 6.50133 125.456 7.01333 125.456 7.664V12H123.824ZM129.824 12V4.192H131.392V5.856H131.216C131.355 5.472 131.547 5.14667 131.792 4.88C132.038 4.61333 132.331 4.41067 132.672 4.272C133.024 4.12267 133.408 4.048 133.824 4.048C134.475 4.048 135.003 4.20267 135.408 4.512C135.814 4.82133 136.091 5.296 136.24 5.936H136.016C136.219 5.34933 136.566 4.89067 137.056 4.56C137.547 4.21867 138.118 4.048 138.768 4.048C139.366 4.048 139.856 4.16533 140.24 4.4C140.624 4.624 140.912 4.97067 141.104 5.44C141.296 5.89867 141.392 6.48 141.392 7.184V12H139.776V7.264C139.776 6.60267 139.659 6.11733 139.424 5.808C139.2 5.49867 138.827 5.344 138.304 5.344C137.92 5.344 137.584 5.43467 137.296 5.616C137.008 5.79733 136.784 6.064 136.624 6.416C136.475 6.75733 136.4 7.16267 136.4 7.632V12H134.784V7.264C134.784 6.60267 134.672 6.11733 134.448 5.808C134.224 5.49867 133.851 5.344 133.328 5.344C132.934 5.344 132.592 5.43467 132.304 5.616C132.027 5.79733 131.814 6.064 131.664 6.416C131.515 6.75733 131.44 7.16267 131.44 7.632V12H129.824Z" fill="url(#paint0_linear_940_332)"/>
<defs>
<linearGradient id="paint0_linear_940_332" x1="-1" y1="7" x2="148" y2="7" gradientUnits="userSpaceOnUse">
<stop stop-color="#9CE2E8"/>
<stop offset="0.5" stop-color="#134D52"/>
<stop offset="1" stop-color="#21868E"/>
</linearGradient>
</defs>
</svg>
